<svg id="Capa_1" enable-background="new 0 0 512 512" height="512" viewBox="0 0 512 512" width="512" xmlns="http://www.w3.org/2000/svg"><g><path d="m90.9 0h-67.4c-12.958 0-23.5 10.542-23.5 23.5v365.6c0 12.958 10.542 23.5 23.5 23.5h9.633v51.267h-17.633c-8.547 0-15.5 6.953-15.5 15.5v17.133c0 8.547 6.953 15.5 15.5 15.5h83.4c8.547 0 15.5-6.953 15.5-15.5v-17.133c0-8.547-6.953-15.5-15.5-15.5h-17.633v-51.267h9.633c12.958 0 23.5-10.542 23.5-23.5v-365.6c0-12.958-10.542-23.5-23.5-23.5zm-67.4 15h67.4c4.687 0 8.5 3.813 8.5 8.5v9.633h-84.4v-9.633c0-4.687 3.813-8.5 8.5-8.5zm75.9 464.367v17.133c0 .276-.224.5-.5.5h-83.4c-.276 0-.5-.224-.5-.5v-17.133c0-.276.224-.5.5-.5h83.4c.276 0 .5.224.5.5zm-33.133-15.5h-18.134v-51.267h18.133v51.267zm24.633-66.267h-67.4c-4.687 0-8.5-3.813-8.5-8.5v-9.633h84.4v9.633c0 4.687-3.813 8.5-8.5 8.5zm8.5-33.133h-84.4v-36.765c10.466 11.442 25.508 18.632 42.2 18.632s31.734-7.19 42.2-18.631zm-84.4-75.334c0-23.269 18.931-42.2 42.2-42.2s42.2 18.931 42.2 42.2-18.931 42.2-42.2 42.2-42.2-18.931-42.2-42.2zm42.2-57.2c-16.692 0-31.734 7.19-42.2 18.632v-202.432h84.4v202.431c-10.466-11.441-25.508-18.631-42.2-18.631z"/><path d="m79.07 68.463c-2.929-2.929-7.678-2.929-10.606 0l-.403.403c-3.265-1.659-6.954-2.6-10.86-2.6s-7.595.942-10.86 2.6l-.404-.403c-2.929-2.929-7.678-2.929-10.606 0-2.929 2.929-2.929 7.678 0 10.606l.403.404c-1.659 3.265-2.6 6.954-2.6 10.86s.941 7.594 2.6 10.859l-.403.403c-2.929 2.929-2.929 7.678 0 10.607 1.465 1.464 3.384 2.197 5.304 2.197 1.919 0 3.839-.732 5.303-2.196l.404-.404c3.265 1.659 6.954 2.6 10.86 2.6s7.595-.941 10.86-2.6l.403.403c1.464 1.464 3.384 2.197 5.303 2.197s3.839-.732 5.303-2.197c2.929-2.929 2.929-7.678 0-10.606l-.403-.403c1.659-3.265 2.6-6.954 2.6-10.86s-.941-7.595-2.6-10.86l.403-.403c2.928-2.929 2.928-7.678-.001-10.607zm-30.937 21.871c0-2.484 1.006-4.737 2.63-6.376.01-.01.022-.019.032-.029s.019-.022.029-.032c1.639-1.624 3.892-2.63 6.376-2.63 4.999 0 9.066 4.067 9.066 9.067 0 4.999-4.067 9.066-9.066 9.066s-9.067-4.067-9.067-9.066z"/><path d="m79.07 151.297c-2.929-2.929-7.678-2.929-10.606 0l-.404.403c-3.265-1.659-6.954-2.6-10.86-2.6s-7.595.941-10.86 2.6l-.404-.403c-2.929-2.929-7.678-2.929-10.606 0-2.929 2.929-2.929 7.678 0 10.606l.403.403c-1.659 3.265-2.6 6.954-2.6 10.86s.941 7.595 2.6 10.86l-.403.404c-2.929 2.929-2.929 7.678 0 10.606 1.464 1.464 3.384 2.197 5.303 2.197s3.839-.732 5.303-2.197l.404-.403c3.265 1.659 6.954 2.6 10.86 2.6s7.595-.941 10.86-2.6l.403.403c1.464 1.464 3.384 2.197 5.303 2.197s3.839-.732 5.303-2.197c2.929-2.929 2.929-7.678 0-10.606l-.403-.403c1.659-3.265 2.6-6.954 2.6-10.86s-.941-7.595-2.6-10.86l.403-.403c2.93-2.929 2.93-7.678.001-10.607zm-30.937 21.87c0-2.484 1.006-4.736 2.629-6.376.01-.01.022-.019.032-.029s.019-.022.029-.032c1.639-1.624 3.892-2.629 6.376-2.629 4.999 0 9.066 4.067 9.066 9.066s-4.067 9.067-9.066 9.067c-4.998-.001-9.066-4.068-9.066-9.067z"/><path d="m57.2 313.2c13.271 0 24.066-10.796 24.066-24.067 0-13.27-10.796-24.066-24.066-24.066s-24.067 10.796-24.067 24.066c0 13.271 10.797 24.067 24.067 24.067zm0-33.133c4.999 0 9.066 4.067 9.066 9.066 0 5-4.067 9.067-9.066 9.067-5 0-9.067-4.067-9.067-9.067 0-4.999 4.068-9.066 9.067-9.066z"/><path d="m488.5 0h-67.4c-12.958 0-23.5 10.542-23.5 23.5v51.833c0 4.142 3.357 7.5 7.5 7.5s7.5-3.358 7.5-7.5v-27.2h84.4v202.431c-10.466-11.442-25.508-18.632-42.2-18.632s-31.734 7.19-42.2 18.632v-145.23c0-4.142-3.357-7.5-7.5-7.5s-7.5 3.358-7.5 7.5v283.766c0 12.958 10.542 23.5 23.5 23.5h9.634v51.267h-17.634c-8.547 0-15.5 6.953-15.5 15.5v17.133c0 8.547 6.953 15.5 15.5 15.5h83.4c8.547 0 15.5-6.953 15.5-15.5v-17.133c0-8.547-6.953-15.5-15.5-15.5h-17.633v-51.267h9.633c12.958 0 23.5-10.542 23.5-23.5v-365.6c0-12.958-10.542-23.5-23.5-23.5zm-33.7 246.933c23.27 0 42.2 18.931 42.2 42.2s-18.931 42.2-42.2 42.2-42.2-18.931-42.2-42.2 18.93-42.2 42.2-42.2zm42.2 232.434v17.133c0 .276-.225.5-.5.5h-83.4c-.275 0-.5-.224-.5-.5v-17.133c0-.276.225-.5.5-.5h83.4c.275 0 .5.224.5.5zm-33.133-15.5h-18.134v-51.267h18.134zm24.633-66.267h-67.4c-4.687 0-8.5-3.813-8.5-8.5v-9.633h84.4v9.633c0 4.687-3.814 8.5-8.5 8.5zm8.5-33.133h-84.4v-36.765c10.466 11.442 25.508 18.632 42.2 18.632s31.734-7.19 42.2-18.632zm-84.4-331.334v-9.633c0-4.687 3.813-8.5 8.5-8.5h67.4c4.686 0 8.5 3.813 8.5 8.5v9.633z"/><path d="m476.671 68.463c-2.93-2.929-7.678-2.929-10.607 0l-.404.403c-3.265-1.659-6.954-2.6-10.86-2.6s-7.594.941-10.859 2.6l-.403-.403c-2.93-2.929-7.678-2.929-10.607 0s-2.929 7.678 0 10.606l.404.404c-1.659 3.265-2.6 6.954-2.6 10.86s.941 7.595 2.6 10.86l-.403.403c-2.93 2.929-2.93 7.678-.001 10.607 1.465 1.464 3.384 2.197 5.304 2.197 1.919 0 3.839-.732 5.303-2.196l.404-.404c3.265 1.659 6.954 2.6 10.86 2.6s7.595-.941 10.861-2.6l.404.404c1.464 1.464 3.384 2.196 5.303 2.196s3.839-.732 5.304-2.197c2.929-2.929 2.929-7.678-.001-10.607l-.403-.403c1.659-3.265 2.6-6.953 2.6-10.86 0-3.906-.941-7.595-2.6-10.86l.404-.404c2.926-2.928 2.926-7.677-.003-10.606zm-30.938 21.871c0-2.483 1.005-4.735 2.627-6.374.011-.011.024-.02.035-.032.011-.011.02-.024.031-.035 1.639-1.622 3.89-2.627 6.373-2.627 5 0 9.067 4.067 9.067 9.067 0 4.999-4.067 9.066-9.067 9.066-4.998.001-9.066-4.066-9.066-9.065z"/><path d="m432.93 195.037c1.465 1.464 3.385 2.197 5.304 2.197s3.839-.732 5.304-2.197l.403-.403c3.265 1.659 6.953 2.6 10.859 2.6s7.595-.942 10.861-2.6l.404.404c1.464 1.464 3.384 2.196 5.303 2.196s3.839-.732 5.304-2.197c2.929-2.929 2.929-7.678-.001-10.607l-.403-.403c1.659-3.265 2.6-6.954 2.6-10.86s-.941-7.594-2.6-10.859l.404-.404c2.929-2.929 2.929-7.678 0-10.606-2.93-2.929-7.678-2.929-10.607 0l-.404.403c-3.265-1.659-6.954-2.6-10.86-2.6s-7.595.941-10.86 2.6l-.403-.403c-2.93-2.929-7.678-2.929-10.607 0s-2.929 7.678 0 10.606l.404.404c-1.659 3.265-2.6 6.953-2.6 10.86 0 3.906.941 7.595 2.6 10.86l-.404.404c-2.93 2.927-2.93 7.676-.001 10.605zm30.937-21.87c0 4.999-4.067 9.067-9.067 9.067-4.999 0-9.066-4.067-9.066-9.067 0-2.482 1.005-4.734 2.627-6.373.012-.011.024-.021.035-.032s.02-.024.032-.035c1.639-1.622 3.89-2.626 6.373-2.626 4.999-.001 9.066 4.067 9.066 9.066z"/><path d="m454.8 313.2c13.271 0 24.067-10.796 24.067-24.067 0-13.27-10.797-24.066-24.067-24.066s-24.066 10.796-24.066 24.066c-.001 13.271 10.795 24.067 24.066 24.067zm0-33.133c5 0 9.067 4.067 9.067 9.066 0 5-4.067 9.067-9.067 9.067-4.999 0-9.066-4.067-9.066-9.067-.001-4.999 4.067-9.066 9.066-9.066z"/><path d="m355.967 331.333h-75.926c.005-.168.025-.331.025-.5v-17.633h42.767c12.958 0 23.5-10.542 23.5-23.5v-133.667c0-12.958-10.542-23.5-23.5-23.5h-133.667c-12.958 0-23.5 10.542-23.5 23.5v133.667c0 12.958 10.542 23.5 23.5 23.5h42.767v17.633c0 .169.02.332.025.5h-75.925c-12.958 0-23.5 10.542-23.5 23.5v100.533c0 10.546 6.983 19.49 16.567 22.455v18.679c0 8.547 6.953 15.5 15.5 15.5h17.133c8.547 0 15.5-6.953 15.5-15.5v-17.633h14.334c4.142 0 7.5-3.358 7.5-7.5s-3.358-7.5-7.5-7.5h-54.967-.567c-4.687 0-8.5-3.813-8.5-8.5v-9.633h216.934v9.633c0 4.687-3.814 8.5-8.5 8.5h-.567-113.833c-4.142 0-7.5 3.358-7.5 7.5s3.358 7.5 7.5 7.5h73.2v17.633c0 8.547 6.953 15.5 15.5 15.5h17.133c8.547 0 15.5-6.953 15.5-15.5v-18.678c9.584-2.966 16.566-11.91 16.566-22.455v-100.534c.001-12.957-10.541-23.5-23.499-23.5zm-173.734 147.534v17.633c0 .276-.224.5-.5.5h-17.133c-.276 0-.5-.224-.5-.5v-17.633zm165.667 17.633c0 .276-.225.5-.5.5h-17.134c-.275 0-.5-.224-.5-.5v-17.633h18.134zm-167.234-206.8v-133.667c0-4.687 3.813-8.5 8.5-8.5h133.667c4.686 0 8.5 3.813 8.5 8.5v133.667c0 4.687-3.814 8.5-8.5 8.5h-50.267-33.133-50.267c-4.687 0-8.5-3.813-8.5-8.5zm66.267 41.133v-17.633h18.133v17.633c0 .276-.225.5-.5.5h-17.133c-.276 0-.5-.224-.5-.5zm-99.4 99.9v-75.9c0-4.687 3.813-8.5 8.5-8.5h199.934c4.686 0 8.5 3.813 8.5 8.5v75.9z"/><path d="m322.267 364.467c-13.271 0-24.066 10.796-24.066 24.066s10.796 24.067 24.066 24.067 24.066-10.796 24.066-24.067-10.796-24.066-24.066-24.066zm0 33.133c-4.999 0-9.066-4.067-9.066-9.067 0-4.999 4.067-9.066 9.066-9.066s9.066 4.067 9.066 9.066c0 5-4.067 9.067-9.066 9.067z"/><path d="m264.566 364.467h-83.4c-8.547 0-15.5 6.953-15.5 15.5v17.133c0 8.547 6.953 15.5 15.5 15.5h83.4c8.547 0 15.5-6.953 15.5-15.5v-17.133c0-8.547-6.953-15.5-15.5-15.5zm.5 32.633c0 .276-.225.5-.5.5h-83.4c-.276 0-.5-.224-.5-.5v-17.133c0-.276.224-.5.5-.5h83.4c.275 0 .5.224.5.5z"/><path d="m313.2 222.867c0-31.54-25.66-57.2-57.2-57.2s-57.2 25.66-57.2 57.2 25.66 57.2 57.2 57.2 57.2-25.66 57.2-57.2zm-99.4 0c0-23.269 18.931-42.2 42.2-42.2s42.2 18.931 42.2 42.2-18.931 42.2-42.2 42.2-42.2-18.931-42.2-42.2z"/><path d="m280.066 222.867c0-13.271-10.796-24.067-24.066-24.067-13.271 0-24.067 10.796-24.067 24.067 0 13.27 10.796 24.066 24.067 24.066 13.27 0 24.066-10.796 24.066-24.066zm-33.133 0c0-5 4.067-9.067 9.067-9.067 4.999 0 9.066 4.067 9.066 9.067 0 4.999-4.067 9.066-9.066 9.066-5 0-9.067-4.067-9.067-9.066z"/></g></svg>