<svg id="Capa_1" enable-background="new 0 0 512 512" height="512" viewBox="0 0 512 512" width="512" xmlns="http://www.w3.org/2000/svg"><g><path d="m33.133 239.433c0 13.27 10.797 24.067 24.067 24.067s24.066-10.796 24.066-24.067c0-13.27-10.796-24.066-24.066-24.066s-24.067 10.796-24.067 24.066zm33.134 0c0 4.999-4.067 9.067-9.066 9.067-5 0-9.067-4.067-9.067-9.067 0-4.999 4.067-9.066 9.067-9.066 4.998 0 9.066 4.067 9.066 9.066z"/><path d="m512 239.433c0-30.565-24.098-55.607-54.293-57.126l-2.305-28.509c-.001-.01-.01-.095-.011-.103-.038-.441-.111-.885-.23-1.327-24.238-89.712-106.136-152.368-199.161-152.368-39.129 0-77.208 11.005-110.123 31.826-3.5 2.214-4.543 6.847-2.328 10.348 2.214 3.501 6.848 4.545 10.348 2.329 30.51-19.301 65.818-29.503 102.103-29.503 83.636 0 157.571 54.614 182.48 133.753-10.45.76-20.571-4.975-25.228-15.048-13.686-29.601-35.392-54.687-62.771-72.546-28.107-18.334-60.778-28.026-94.481-28.026s-66.374 9.691-94.481 28.026c-27.379 17.859-49.085 42.945-62.771 72.546-4.657 10.074-14.793 15.825-25.229 15.047 10.508-33.402 29.949-63.164 56.556-86.455 3.116-2.729 3.431-7.467.703-10.583-2.73-3.117-7.468-3.432-10.584-.703-30.823 26.983-52.731 62.032-63.355 101.356-.088.324-.145.649-.188.973-.02.114-.053.447-.054.457l-2.304 28.509c-30.195 1.52-54.293 26.562-54.293 57.127 0 25.537 16.823 47.213 39.967 54.542l1.369 64.555c-5.082 4.455-8.203 10.962-8.203 18.088v56.964c0 11.064 7.496 20.665 18.229 23.348l14.904 3.726v16.853c0 9.199 5.358 17.715 13.652 21.697l18.318 8.793c5.454 2.618 11.534 4.001 17.583 4.001h7.646c10.652 0 19.704-6.959 22.864-16.567h19.403c17.369 0 31.5-14.131 31.5-31.5v-117.666c0-17.369-14.131-31.5-31.5-31.5h-19.402c-3.16-9.608-12.212-16.566-22.864-16.566h-7.647c-6.048 0-12.127 1.383-17.581 4l-18.318 8.792c-8.294 3.98-13.653 12.497-13.653 21.697v16.855l-10.065 2.516-1.177-55.482c.723.027 1.446.055 2.175.055 31.54 0 57.2-25.66 57.2-57.2 0-27.408-19.382-50.366-45.157-55.913l1.612-19.946c0-.002 0-.004 0-.007 1.533.175 3.065.27 4.587.27 15.453 0 30.013-8.899 36.92-23.837 25.803-55.808 82.184-91.868 143.638-91.868s117.835 36.06 143.637 91.867c6.907 14.939 21.465 23.839 36.92 23.837 1.522 0 3.053-.095 4.587-.27l1.613 19.953c-25.775 5.547-45.157 28.504-45.157 55.913 0 31.541 25.66 57.2 57.2 57.2.729 0 1.452-.028 2.175-.055l-1.177 55.482-10.065-2.516v-16.855c0-9.201-5.359-17.717-13.653-21.697l-18.319-8.792c-5.453-2.617-11.532-4-17.58-4h-7.647c-10.652 0-19.704 6.958-22.863 16.566h-19.403c-17.369 0-31.5 14.131-31.5 31.5v20.219c0 4.142 3.357 7.5 7.5 7.5s7.5-3.358 7.5-7.5v-20.219c0-9.098 7.401-16.5 16.5-16.5h18.2v18.134h-9.068c-4.143 0-7.5 3.358-7.5 7.5s3.357 7.5 7.5 7.5h9.066v34.7h-9.066c-4.143 0-7.5 3.358-7.5 7.5s3.357 7.5 7.5 7.5h9.066v34.7h-9.066c-4.143 0-7.5 3.358-7.5 7.5s3.357 7.5 7.5 7.5h9.066v18.133h-18.2c-9.099 0-16.5-7.402-16.5-16.5v-67.447c0-4.142-3.357-7.5-7.5-7.5s-7.5 3.358-7.5 7.5v67.447c0 17.369 14.131 31.5 31.5 31.5h19.403c3.16 9.608 12.212 16.567 22.863 16.567h7.646c6.049 0 12.129-1.383 17.583-4.001l18.319-8.793c8.293-3.982 13.651-12.498 13.651-21.697v-16.853l14.904-3.726c10.733-2.683 18.229-12.284 18.229-23.348v-56.964c0-7.126-3.122-13.633-8.203-18.088l1.369-64.555c23.147-7.329 39.97-29.005 39.97-54.542zm-329.767 106.834v117.666c0 9.098-7.401 16.5-16.5 16.5h-18.2v-18.133h9.066c4.143 0 7.5-3.358 7.5-7.5s-3.357-7.5-7.5-7.5h-9.066v-34.7h9.066c4.143 0 7.5-3.358 7.5-7.5s-3.357-7.5-7.5-7.5h-9.066v-34.7h9.066c4.143 0 7.5-3.358 7.5-7.5s-3.357-7.5-7.5-7.5h-9.066v-18.133h18.2c9.099 0 16.5 7.402 16.5 16.5zm-58.766-33.067c4.999 0 9.066 4.067 9.066 9.066v165.666c0 5-4.067 9.067-9.066 9.067 0 0-8.593-.014-9.066-.04v-183.718c.472-.027 9.066-.041 9.066-.041zm-42.2 19.489c0-3.466 2.019-6.674 5.144-8.174l12.99-6.235v173.638l-12.99-6.236c-3.125-1.5-5.144-4.708-5.144-8.174zm-15 112.505-11.266-2.816c-4.044-1.011-6.868-4.628-6.868-8.796v-56.964c0-4.168 2.824-7.785 6.868-8.796l11.266-2.816zm33.133-205.761c0 23.269-18.931 42.2-42.2 42.2s-42.2-18.931-42.2-42.2 18.931-42.2 42.2-42.2 42.2 18.931 42.2 42.2zm289.133 257.567c-4.999 0-9.066-4.067-9.066-9.067v-165.666c0-4.999 4.067-9.066 9.066-9.066 0 0 8.594.014 9.066.04v183.719c-.473.026-9.066.04-9.066.04zm42.2-19.491c0 3.466-2.019 6.674-5.143 8.174l-12.991 6.236v-173.638l12.99 6.234c3.125 1.5 5.144 4.708 5.144 8.174zm33.134-43.927c0 4.168-2.824 7.785-6.868 8.796l-11.266 2.816v-80.188l11.266 2.816c4.044 1.011 6.868 4.628 6.868 8.796zm-51.267-194.149c0-23.269 18.931-42.2 42.2-42.2s42.2 18.931 42.2 42.2-18.931 42.2-42.2 42.2-42.2-18.931-42.2-42.2z"/><path d="m454.8 215.367c-13.271 0-24.066 10.796-24.066 24.066s10.796 24.067 24.066 24.067 24.067-10.796 24.067-24.067c0-13.27-10.797-24.066-24.067-24.066zm0 33.133c-4.999 0-9.066-4.067-9.066-9.067 0-4.999 4.067-9.066 9.066-9.066 5 0 9.067 4.067 9.067 9.066 0 5-4.067 9.067-9.067 9.067z"/></g></svg>