<svg id="Capa_1" enable-background="new 0 0 512 512" height="512" viewBox="0 0 512 512" width="512" xmlns="http://www.w3.org/2000/svg"><g><path d="m296.633 153.69v-21.94c0-8.703-7.08-15.783-15.783-15.783h-.783v-34.7h17.633c8.547 0 15.5-6.953 15.5-15.5v-17.634h17.633c8.547 0 15.5-6.953 15.5-15.5v-17.133c0-8.547-6.953-15.5-15.5-15.5h-109.533c-4.143 0-7.5 3.358-7.5 7.5s3.357 7.5 7.5 7.5h109.533c.275 0 .5.224.5.5v17.133c0 .276-.225.5-.5.5h-149.666c-.275 0-.5-.224-.5-.5v-17.133c0-.276.225-.5.5-.5h10.133c4.143 0 7.5-3.358 7.5-7.5s-3.358-7.5-7.5-7.5h-10.133c-8.547 0-15.5 6.953-15.5 15.5v17.133c0 8.547 6.953 15.5 15.5 15.5h17.633v17.633c0 8.547 6.953 15.5 15.5 15.5h17.634v34.7h-.783c-8.703 0-15.783 7.081-15.783 15.783v21.94c-80.556 18.5-140.818 90.774-140.818 176.861 0 100.052 81.398 181.45 181.45 181.45s181.45-81.398 181.45-181.45c0-86.087-60.262-158.361-140.817-176.86zm117.983 227.343h-55.681c2.232-13.857 3.542-28.266 3.875-42.983h59.464c-.666 14.918-3.303 29.329-7.658 42.983zm-32.464 57.984h-39.374c5.558-13.246 10.032-27.695 13.335-42.983h52.905c-6.752 15.716-15.854 30.193-26.866 42.983zm-279.17-42.984h61.188c3.303 15.289 7.777 29.737 13.335 42.983h-47.657c-11.012-12.789-20.114-27.266-26.866-42.983zm-5.595-115.976c.063.002.125.01.189.01h63.773c-2.232 13.857-3.542 28.266-3.875 42.983h-67.747c.665-14.921 3.303-29.336 7.66-42.993zm32.461-57.974h47.657c-5.558 13.246-10.032 27.695-13.336 42.983h-61.188c6.752-15.716 15.854-30.193 26.867-42.983zm133.652 216.934v-42.983h77.263c-3.544 15.471-8.365 29.943-14.362 42.983zm-69.617 0c-5.997-13.041-10.818-27.512-14.362-42.983h68.979v42.983zm54.617 15v41.478c-17.266-4.455-33.503-18.768-46.823-41.478zm-56.911-130.967h-19.113c.348-14.774 1.724-29.193 4.064-42.983h71.96v42.983h-27.292c-4.091 0-7.407 3.358-7.407 7.5s3.316 7.5 7.407 7.5h27.292v42.983h-71.96c-2.34-13.79-3.716-28.209-4.064-42.983h19.113c3.983 0 7.211-3.358 7.211-7.5s-3.228-7.5-7.211-7.5zm56.911-157.445v41.479h-46.823c13.32-22.711 29.557-37.024 46.823-41.479zm0 56.478v42.983h-68.98c3.544-15.471 8.365-29.943 14.362-42.983zm15 158.95v-42.983h84.307c-.348 14.774-1.724 29.193-4.064 42.983zm0-57.983v-42.983h80.243c2.34 13.79 3.716 28.209 4.064 42.983zm0-57.983v-42.983h62.901c5.997 13.041 10.818 27.512 14.362 42.983zm79.278-42.984h39.374c11.012 12.79 20.114 27.266 26.866 42.983h-52.905c-3.303-15.288-7.777-29.736-13.335-42.983zm-7.023-15c-.551-1.056-1.11-2.102-1.677-3.137-6.463-11.801-13.698-21.815-21.515-29.945 20.475 7.421 39.093 18.749 54.948 33.082zm-17.149 0h-55.106v-42.807c.35.016.702.022 1.052.04 19.941 1.93 38.888 16.91 54.054 42.767zm-132.401-3.137c-.567 1.035-1.125 2.082-1.677 3.137h-40.04c18.954-17.135 41.858-29.972 67.163-36.975-9.333 8.738-17.912 20.081-25.446 33.838zm-28.731 134.104c.333 14.717 1.643 29.126 3.875 42.983h-63.965c-4.356-13.654-6.993-28.066-7.658-42.983zm27.054 115.967c.551 1.056 1.11 2.102 1.677 3.137 7.535 13.759 16.116 25.101 25.452 33.839-25.307-7.003-48.213-19.84-67.168-36.976zm78.972 42.806v-42.807h55.106c-15.167 25.857-34.114 40.838-54.055 42.767-.349.018-.701.025-1.051.04zm70.578-39.669c.567-1.035 1.126-2.082 1.677-3.137h31.756c-15.855 14.334-34.474 25.662-54.951 33.083 7.818-8.131 15.055-18.144 21.518-29.946zm28.731-134.104c-.333-14.717-1.643-29.126-3.875-42.983h55.491c.063 0 .125-.008.188-.01 4.357 13.656 6.995 28.072 7.661 42.993zm-149.009-257.283v-17.634h84.4v17.633c0 .276-.225.5-.5.5h-83.4c-.276.001-.5-.223-.5-.499zm33.134 15.5h18.133v34.7h-18.133zm-16.567 50.483c0-.432.352-.783.783-.783h49.699c.432 0 .783.352.783.783v19.169c-8.377-1.19-16.932-1.819-25.633-1.819-8.7 0-17.256.629-25.633 1.819v-19.169z"/><path d="m56.146 154.592-2.665 15.535c-1.022 5.965 1.384 11.88 6.28 15.437s11.265 4.017 16.622 1.202l13.95-7.334 13.951 7.334c2.33 1.225 4.851 1.83 7.36 1.83 3.259 0 6.496-1.021 9.263-3.032 4.895-3.557 7.301-9.472 6.277-15.437l-2.664-15.534 11.287-11.003c4.333-4.224 5.863-10.424 3.993-16.179-1.87-5.756-6.752-9.871-12.741-10.742l-15.598-2.267-6.975-14.134c0-.001 0-.001 0-.001-2.68-5.427-8.104-8.798-14.155-8.797-6.052.001-11.475 3.372-14.152 8.798l-6.976 14.134-15.597 2.267c-5.99.87-10.872 4.986-12.742 10.742-1.87 5.755-.34 11.955 3.994 16.179zm-1.015-22.546c.15-.463.476-.51.633-.533l19.499-2.833c2.443-.355 4.555-1.889 5.647-4.103l8.721-17.67c.07-.142.215-.436.702-.436s.634.295.703.437l8.72 17.669c1.093 2.214 3.204 3.748 5.647 4.103l19.5 2.833c.156.023.482.07.632.533s-.085.693-.198.803l-14.11 13.754c-1.768 1.723-2.574 4.206-2.156 6.639l3.331 19.421c.026.155.082.479-.312.765-.395.285-.686.134-.825.06l-17.441-9.169c-1.093-.574-2.291-.861-3.49-.861s-2.397.287-3.49.861l-17.44 9.169c-.139.075-.432.226-.825-.06-.395-.286-.339-.61-.312-.766l3.331-19.421c.418-2.433-.389-4.915-2.156-6.639l-14.112-13.753c-.113-.111-.35-.34-.199-.803z"/><path d="m387.479 154.592-2.664 15.534c-1.023 5.965 1.382 11.88 6.277 15.437 2.767 2.011 6.004 3.032 9.263 3.032 2.509 0 5.03-.605 7.36-1.83l13.951-7.334 13.95 7.334c5.355 2.815 11.726 2.355 16.622-1.202s7.303-9.472 6.279-15.437l-2.664-15.535 11.286-11.001c4.334-4.225 5.864-10.424 3.994-16.18s-6.752-9.872-12.742-10.742l-15.597-2.267-6.976-14.134c-2.678-5.427-8.101-8.798-14.152-8.798h-.001c-6.052 0-11.476 3.371-14.154 8.798l-6.975 14.134-15.598 2.267c-5.989.87-10.871 4.986-12.741 10.742-1.87 5.755-.34 11.955 3.993 16.18zm-1.014-22.546c.15-.463.476-.51.632-.533l19.5-2.833c2.443-.355 4.555-1.889 5.647-4.103l8.72-17.669c.069-.142.216-.437.703-.437s.632.294.702.436l8.721 17.67c1.093 2.213 3.204 3.748 5.647 4.103l19.499 2.833c.156.023.483.07.633.533s-.086.692-.199.803l-14.109 13.754c-1.767 1.723-2.574 4.206-2.156 6.639l3.33 19.42c.027.156.083.48-.311.766-.394.285-.686.134-.825.06l-17.44-9.169c-2.185-1.148-4.794-1.149-6.98 0l-17.441 9.169c-.14.075-.431.226-.825-.06s-.338-.61-.312-.766l3.331-19.421c.418-2.433-.389-4.915-2.156-6.639l-14.11-13.753c-.116-.11-.351-.34-.201-.803z"/><path d="m24.066 364.467c-13.27 0-24.066 10.796-24.066 24.066s10.796 24.067 24.066 24.067 24.066-10.796 24.066-24.067-10.795-24.066-24.066-24.066zm0 33.133c-4.999 0-9.066-4.067-9.066-9.067 0-4.999 4.067-9.066 9.066-9.066s9.066 4.067 9.066 9.066c.001 5-4.067 9.067-9.066 9.067z"/><path d="m487.934 364.467c-13.271 0-24.066 10.796-24.066 24.066s10.796 24.067 24.066 24.067 24.066-10.796 24.066-24.067-10.796-24.066-24.066-24.066zm0 33.133c-4.999 0-9.066-4.067-9.066-9.067 0-4.999 4.067-9.066 9.066-9.066s9.066 4.067 9.066 9.066c0 5-4.067 9.067-9.066 9.067z"/><path d="m57.2 265.067h-9.067v-9.067c0-4.142-3.357-7.5-7.5-7.5s-7.5 3.358-7.5 7.5v9.067h-9.066c-4.143 0-7.5 3.358-7.5 7.5s3.357 7.5 7.5 7.5h9.066v9.066c0 4.142 3.357 7.5 7.5 7.5s7.5-3.358 7.5-7.5v-9.066h9.067c4.143 0 7.5-3.358 7.5-7.5s-3.357-7.5-7.5-7.5z"/><path d="m463.867 289.133c0 4.142 3.357 7.5 7.5 7.5s7.5-3.358 7.5-7.5v-9.066h9.066c4.143 0 7.5-3.358 7.5-7.5s-3.357-7.5-7.5-7.5h-9.066v-9.067c0-4.142-3.357-7.5-7.5-7.5s-7.5 3.358-7.5 7.5v9.067h-9.067c-4.143 0-7.5 3.358-7.5 7.5s3.357 7.5 7.5 7.5h9.067z"/><path d="m106.9 480.433h-9.067v-9.066c0-4.142-3.357-7.5-7.5-7.5s-7.5 3.358-7.5 7.5v9.066h-9.066c-4.143 0-7.5 3.358-7.5 7.5s3.357 7.5 7.5 7.5h9.066v9.067c0 4.142 3.357 7.5 7.5 7.5s7.5-3.358 7.5-7.5v-9.067h9.067c4.143 0 7.5-3.358 7.5-7.5s-3.357-7.5-7.5-7.5z"/><path d="m438.233 480.433h-9.066v-9.066c0-4.142-3.357-7.5-7.5-7.5s-7.5 3.358-7.5 7.5v9.066h-9.067c-4.143 0-7.5 3.358-7.5 7.5s3.357 7.5 7.5 7.5h9.067v9.067c0 4.142 3.357 7.5 7.5 7.5s7.5-3.358 7.5-7.5v-9.067h9.066c4.143 0 7.5-3.358 7.5-7.5s-3.357-7.5-7.5-7.5z"/></g></svg>