<svg id="Capa_1" enable-background="new 0 0 512 512" height="512" viewBox="0 0 512 512" width="512" xmlns="http://www.w3.org/2000/svg"><g><path d="m307.862 369.518c-3.393-2.995-7.91-4.388-12.403-3.829l-49.7 6.212c-7.882.986-13.825 7.72-13.825 15.662v44.95c-2.8-1.143-5.86-1.779-9.066-1.779-13.271 0-24.067 10.796-24.067 24.066s10.797 24.067 24.067 24.067 24.066-10.797 24.066-24.067v-38.936l51.267-6.409v23.058c-2.801-1.144-5.861-1.779-9.067-1.779-13.271 0-24.066 10.796-24.066 24.066s10.796 24.067 24.066 24.067 24.067-10.797 24.067-24.067v-73.45c-.001-4.526-1.946-8.838-5.339-11.832zm-84.995 94.349c-5 0-9.067-4.067-9.067-9.067 0-4.999 4.067-9.066 9.067-9.066 4.999 0 9.066 4.067 9.066 9.066.001 5-4.067 9.067-9.066 9.067zm24.067-63.121v-13.183c0-.395.295-.728.686-.777l49.701-6.212c.23-.032.439.034.615.189s.265.353.265.587v12.987zm42.199 63.121c-4.999 0-9.066-4.067-9.066-9.067 0-4.999 4.067-9.066 9.066-9.066 5 0 9.067 4.067 9.067 9.066 0 5-4.067 9.067-9.067 9.067z"/><path d="m471.367 0h-430.734c-22.405 0-40.633 18.228-40.633 40.633v331.334c0 22.405 18.228 40.633 40.633 40.633h125.034v75.9c0 12.958 10.542 23.5 23.5 23.5h133.666c12.958 0 23.5-10.542 23.5-23.5v-75.9h125.034c22.405 0 40.633-18.228 40.633-40.633v-331.334c0-22.405-18.228-40.633-40.633-40.633zm-456.367 114.4h482v183.8h-482zm25.633-99.4h430.734c14.134 0 25.633 11.499 25.633 25.633v58.767h-482v-58.767c0-14.134 11.499-25.633 25.633-25.633zm125.034 349.467h-21.492c-.432 0-.783-.352-.783-.783v-16.566c0-.433.352-.784.783-.784h23.09c-1.027 2.638-1.597 5.503-1.597 8.5v9.633zm165.666 124.033c0 4.686-3.814 8.5-8.5 8.5h-133.666c-4.687 0-8.5-3.814-8.5-8.5v-133.667c0-2.961 1.525-5.571 3.828-7.093.759-.224 1.488-.563 2.153-1.026.796-.248 1.643-.381 2.519-.381h133.666c.875 0 1.72.134 2.516.38.667.464 1.398.804 2.16 1.029 2.301 1.522 3.824 4.131 3.824 7.091zm13.403-142.167h23.09c.432 0 .783.352.783.784v16.566c0 .432-.352.783-.783.783h-21.492v-9.634c-.001-2.996-.571-5.861-1.598-8.499zm126.631 51.267h-125.034v-18.133h21.492c8.703 0 15.783-7.08 15.783-15.783v-16.566c0-8.703-7.08-15.784-15.783-15.784h-33.134c-1.816 0-3.615.326-5.314.934-2.079-.604-4.273-.934-6.544-.934h-133.666c-2.264 0-4.452.328-6.525.929-1.692-.608-3.486-.929-5.334-.929h-33.134c-8.703 0-15.783 7.081-15.783 15.784v16.566c0 8.703 7.08 15.783 15.783 15.783h21.492v18.133h-125.033c-14.134 0-25.633-11.499-25.633-25.633v-58.767h482v58.767c0 14.134-11.499 25.633-25.633 25.633z"/><path d="m48.917 81.267h33.133c8.703 0 15.783-7.08 15.783-15.783v-16.567c0-8.703-7.08-15.784-15.783-15.784h-33.133c-8.703 0-15.784 7.081-15.784 15.784v16.566c0 8.704 7.081 15.784 15.784 15.784zm-.784-32.35c0-.433.352-.784.784-.784h33.133c.432 0 .783.352.783.784v16.566c0 .432-.352.783-.783.783h-33.133c-.433 0-.784-.352-.784-.783z"/><path d="m144.175 81.267h33.134c8.703 0 15.783-7.08 15.783-15.783v-16.567c0-8.703-7.08-15.784-15.783-15.784h-33.134c-8.703 0-15.783 7.081-15.783 15.784v16.566c0 8.704 7.08 15.784 15.783 15.784zm-.783-32.35c0-.433.352-.784.783-.784h33.134c.432 0 .783.352.783.784v16.566c0 .432-.352.783-.783.783h-33.134c-.432 0-.783-.352-.783-.783z"/><path d="m239.434 81.267h33.133c8.703 0 15.783-7.08 15.783-15.783v-16.567c0-8.703-7.08-15.784-15.783-15.784h-33.133c-8.703 0-15.783 7.081-15.783 15.784v16.566c-.001 8.704 7.079 15.784 15.783 15.784zm-.784-32.35c0-.433.352-.784.783-.784h33.133c.432 0 .783.352.783.784v16.566c0 .432-.352.783-.783.783h-33.133c-.432 0-.783-.352-.783-.783z"/><path d="m334.691 81.267h33.134c8.703 0 15.783-7.08 15.783-15.783v-16.567c0-8.703-7.08-15.784-15.783-15.784h-33.134c-8.703 0-15.783 7.081-15.783 15.784v16.566c0 8.704 7.08 15.784 15.783 15.784zm-.783-32.35c0-.433.352-.784.783-.784h33.134c.432 0 .783.352.783.784v16.566c0 .432-.352.783-.783.783h-33.134c-.432 0-.783-.352-.783-.783z"/><path d="m429.95 81.267h33.133c8.703 0 15.784-7.08 15.784-15.783v-16.567c0-8.703-7.081-15.784-15.784-15.784h-33.133c-8.703 0-15.783 7.081-15.783 15.784v16.566c0 8.704 7.08 15.784 15.783 15.784zm-.783-32.35c0-.433.352-.784.783-.784h33.133c.433 0 .784.352.784.784v16.566c0 .432-.352.783-.784.783h-33.133c-.432 0-.783-.352-.783-.783z"/><path d="m82.05 331.333h-33.133c-8.703 0-15.784 7.081-15.784 15.784v16.566c0 8.703 7.081 15.783 15.784 15.783h33.133c8.703 0 15.783-7.08 15.783-15.783v-16.566c0-8.703-7.08-15.784-15.783-15.784zm.783 32.351c0 .432-.352.783-.783.783h-33.133c-.433 0-.784-.352-.784-.783v-16.566c0-.433.352-.784.784-.784h33.133c.432 0 .783.352.783.784z"/><path d="m463.083 331.333h-33.133c-8.703 0-15.783 7.081-15.783 15.784v16.566c0 8.703 7.08 15.783 15.783 15.783h33.133c8.703 0 15.784-7.08 15.784-15.783v-16.566c0-8.703-7.081-15.784-15.784-15.784zm.784 32.351c0 .432-.352.783-.784.783h-33.133c-.432 0-.783-.352-.783-.783v-16.566c0-.433.352-.784.783-.784h33.133c.433 0 .784.352.784.784z"/><path d="m73.767 132.533h-24.85c-8.703 0-15.784 7.08-15.784 15.783v24.851c0 4.143 3.357 7.5 7.5 7.5s7.5-3.357 7.5-7.5v-24.851c0-.432.352-.783.784-.783h24.85c4.143 0 7.5-3.357 7.5-7.5 0-4.142-3.358-7.5-7.5-7.5z"/><path d="m463.083 132.533h-24.85c-4.143 0-7.5 3.357-7.5 7.5s3.357 7.5 7.5 7.5h24.85c.433 0 .784.352.784.783v24.851c0 4.143 3.357 7.5 7.5 7.5s7.5-3.357 7.5-7.5v-24.851c0-8.703-7.081-15.783-15.784-15.783z"/><path d="m471.367 231.934c-4.143 0-7.5 3.357-7.5 7.5v24.85c0 .432-.352.783-.784.783h-24.85c-4.143 0-7.5 3.357-7.5 7.5s3.357 7.5 7.5 7.5h24.85c8.703 0 15.784-7.08 15.784-15.783v-24.85c0-4.143-3.357-7.5-7.5-7.5z"/><path d="m73.767 265.066h-24.85c-.433 0-.784-.352-.784-.783v-24.85c0-4.143-3.357-7.5-7.5-7.5s-7.5 3.357-7.5 7.5v24.85c0 8.703 7.081 15.783 15.784 15.783h24.85c4.143 0 7.5-3.357 7.5-7.5s-3.358-7.5-7.5-7.5z"/><path d="m282.789 192.32-39.461-19.73c-4.93-2.464-10.67-2.207-15.356.691-4.688 2.896-7.485 7.916-7.485 13.427v39.461c0 5.511 2.799 10.529 7.485 13.427 2.552 1.576 5.414 2.371 8.288 2.371 2.407 0 4.822-.558 7.068-1.681l39.461-19.73c5.382-2.69 8.725-8.101 8.725-14.117s-3.343-11.428-8.725-14.119zm-6.709 14.819-39.461 19.73c-.105.054-.39.196-.761-.034-.372-.23-.372-.548-.372-.667v-39.461c0-.119 0-.438.371-.667.155-.096.294-.127.412-.127.165 0 .288.061.35.093l39.461 19.73c.141.07.434.217.434.701s-.293.631-.434.702z"/><path d="m256 132.533c-40.675 0-73.767 33.092-73.767 73.767s33.092 73.767 73.767 73.767 73.767-33.092 73.767-73.767-33.092-73.767-73.767-73.767zm0 132.533c-32.404 0-58.767-26.362-58.767-58.767s26.362-58.767 58.767-58.767 58.767 26.362 58.767 58.767-26.363 58.767-58.767 58.767z"/></g></svg>