<svg id="Capa_1" enable-background="new 0 0 512 512" height="512" viewBox="0 0 512 512" width="512" xmlns="http://www.w3.org/2000/svg"><g><path d="m437.02 74.98c-48.352-48.351-112.64-74.98-181.02-74.98-62.647 0-122.938 22.865-169.767 64.384-3.099 2.748-3.384 7.488-.636 10.587 2.747 3.1 7.487 3.385 10.587.636 44.083-39.083 100.84-60.607 159.816-60.607 132.888 0 241 108.112 241 241s-108.112 241-241 241-241-108.112-241-241c0-58.977 21.524-115.733 60.607-159.815 2.748-3.1 2.463-7.839-.636-10.587-3.1-2.749-7.84-2.463-10.587.636-41.519 46.827-64.384 107.118-64.384 169.766 0 68.38 26.629 132.668 74.98 181.02 48.352 48.351 112.64 74.98 181.02 74.98s132.668-26.629 181.02-74.98c48.351-48.352 74.98-112.64 74.98-181.02s-26.629-132.668-74.98-181.02z"/><path d="m280.066 256c0-13.27-10.796-24.067-24.066-24.067-13.271 0-24.067 10.796-24.067 24.067s10.796 24.067 24.067 24.067c13.27 0 24.066-10.796 24.066-24.067zm-33.133 0c0-4.999 4.067-9.067 9.067-9.067 4.999 0 9.066 4.067 9.066 9.067s-4.067 9.067-9.066 9.067c-5 0-9.067-4.067-9.067-9.067z"/><path d="m256 132.533c-27.51 0-53.544 8.853-75.287 25.602-3.281 2.528-3.892 7.237-1.364 10.519 2.527 3.281 7.236 3.891 10.519 1.364 19.095-14.71 41.963-22.485 66.132-22.485 59.809 0 108.467 48.658 108.467 108.467s-48.658 108.467-108.467 108.467-108.467-48.658-108.467-108.467c0-24.169 7.775-47.037 22.485-66.132 2.528-3.282 1.917-7.991-1.364-10.519-3.282-2.529-7.992-1.917-10.519 1.364-16.749 21.743-25.603 47.776-25.603 75.287 0 68.08 55.387 123.467 123.467 123.467s123.467-55.387 123.467-123.467-55.386-123.467-123.466-123.467z"/><path d="m255.998 33.133c-59.529 0-115.495 23.183-157.588 65.276-42.095 42.094-65.277 98.061-65.277 157.591 0 4.142 3.358 7.5 7.5 7.5s7.5-3.358 7.5-7.5c0-55.523 21.622-107.723 60.883-146.984 39.26-39.26 91.459-60.882 146.981-60.883 4.142 0 7.5-3.358 7.5-7.5s-3.357-7.5-7.499-7.5z"/><path d="m248.502 471.367c0 4.142 3.358 7.5 7.5 7.5 59.529 0 115.495-23.183 157.588-65.276 42.094-42.094 65.276-98.061 65.276-157.59 0-4.142-3.357-7.5-7.5-7.5s-7.5 3.358-7.5 7.5c0 55.522-21.622 107.723-60.884 146.984-39.26 39.26-91.459 60.882-146.981 60.883-4.141-.001-7.499 3.357-7.499 7.499z"/><path d="m263.498 73.767c0-4.142-3.358-7.5-7.5-7.5-50.679 0-98.325 19.736-134.16 55.572-35.836 35.835-55.571 83.481-55.571 134.161 0 4.142 3.358 7.5 7.5 7.5s7.5-3.358 7.5-7.5c0-46.673 18.175-90.553 51.178-123.555 33.002-33.002 76.881-51.178 123.553-51.178 4.143 0 7.5-3.358 7.5-7.5z"/><path d="m438.233 248.5c-4.143 0-7.5 3.358-7.5 7.5 0 46.672-18.176 90.552-51.179 123.555-33.001 33.002-76.879 51.177-123.55 51.178-4.142 0-7.5 3.358-7.5 7.5s3.358 7.5 7.5 7.5c50.678-.001 98.323-19.737 134.158-55.572 35.836-35.836 55.571-83.482 55.571-134.162 0-4.141-3.357-7.499-7.5-7.499z"/><path d="m106.9 263.5c4.142 0 7.5-3.358 7.5-7.5 0-37.823 14.729-73.382 41.474-100.126 26.744-26.744 62.303-41.473 100.125-41.474 4.143 0 7.5-3.358 7.5-7.5s-3.358-7.5-7.5-7.5c-41.829 0-81.154 16.29-110.731 45.867-29.579 29.578-45.868 68.903-45.868 110.733 0 4.142 3.358 7.5 7.5 7.5z"/><path d="m405.1 248.5c-4.143 0-7.5 3.358-7.5 7.5 0 37.823-14.729 73.381-41.474 100.126-26.743 26.744-62.301 41.473-100.123 41.474-4.142 0-7.5 3.358-7.5 7.5s3.358 7.5 7.5 7.5c41.829-.001 81.153-16.29 110.73-45.867 29.577-29.578 45.867-68.904 45.867-110.733 0-4.142-3.358-7.5-7.5-7.5z"/><path d="m330.833 280.067c8.547 0 15.5-6.953 15.5-15.5v-17.134c0-8.547-6.953-15.5-15.5-15.5h-17.133c-8.547 0-15.5 6.953-15.5 15.5v17.134c0 8.547 6.953 15.5 15.5 15.5zm-17.633-15.5v-17.134c0-.276.225-.5.5-.5h17.133c.275 0 .5.224.5.5v17.134c0 .276-.225.5-.5.5h-17.133c-.275 0-.5-.224-.5-.5z"/><path d="m198.017 231.933h-16.567c-4.142 0-7.5 3.358-7.5 7.5s3.358 7.5 7.5 7.5h16.566c4.142 0 7.5-3.358 7.5-7.5.001-4.142-3.357-7.5-7.499-7.5z"/><path d="m165.666 272.567c0 4.142 3.358 7.5 7.5 7.5h33.134c4.142 0 7.5-3.358 7.5-7.5s-3.358-7.5-7.5-7.5h-33.133c-4.143 0-7.501 3.358-7.501 7.5z"/></g></svg>