<svg id="Capa_1" enable-background="new 0 0 512 512" height="512" viewBox="0 0 512 512" width="512" xmlns="http://www.w3.org/2000/svg"><g><path d="m130.967 256c0-13.27-10.796-24.066-24.067-24.066-13.27 0-24.066 10.796-24.066 24.066 0 13.271 10.796 24.066 24.066 24.066s24.067-10.795 24.067-24.066zm-33.134 0c0-4.999 4.067-9.066 9.066-9.066s9.067 4.067 9.067 9.066-4.067 9.066-9.067 9.066c-4.998 0-9.066-4.067-9.066-9.066z"/><path d="m313.983 222.083c13.271 0 24.066-10.796 24.066-24.066 0-13.271-10.796-24.066-24.066-24.066s-24.066 10.796-24.066 24.066 10.796 24.066 24.066 24.066zm0-33.133c4.999 0 9.066 4.067 9.066 9.066s-4.067 9.066-9.066 9.066-9.066-4.067-9.066-9.066c0-4.998 4.067-9.066 9.066-9.066z"/><path d="m248.5 198.017c0 36.107 29.376 65.483 65.483 65.483s65.483-29.376 65.483-65.483-29.376-65.483-65.483-65.483-65.483 29.375-65.483 65.483zm65.483-50.484c27.837 0 50.483 22.646 50.483 50.483s-22.646 50.484-50.483 50.484-50.483-22.646-50.483-50.483 22.646-50.484 50.483-50.484z"/><path d="m296.095 50.006c-.734-4.262-3.221-8.079-6.822-10.475-3.594-2.391-8.063-3.206-12.264-2.238-15.908 3.664-31.206 9.697-45.467 17.931-14.259 8.233-27.132 18.464-38.261 30.41-2.938 3.153-4.466 7.433-4.193 11.739.273 4.316 2.336 8.379 5.66 11.146l38.294 31.878h.001c2.949 2.455 6.513 3.666 10.07 3.666 4.102 0 8.196-1.611 11.328-4.783 5.244-5.309 11.211-9.911 17.735-13.678 6.527-3.768 13.496-6.635 20.714-8.52 8.052-2.104 13.066-9.83 11.666-17.974zm-6.997 52.563c-8.517 2.225-16.733 5.604-24.423 10.043-7.687 4.438-14.721 9.864-20.908 16.129-.288.29-.768.428-1.129.127l-38.294-31.877c-.176-.146-.273-.338-.287-.566-.014-.22.053-.41.199-.566 10.113-10.856 21.816-20.157 34.786-27.645 12.971-7.488 26.877-12.974 41.335-16.304.208-.048.406-.011.589.11.191.128.309.307.348.532l8.459 49.102c.079.465-.28.813-.675.915z"/><path d="m488.5 331.333h-28.136c33-36.285 51.636-83.922 51.636-133.316 0-109.187-88.83-198.017-198.017-198.017-32.454 0-64.647 8.025-93.098 23.207-3.654 1.95-5.036 6.494-3.085 10.148 1.95 3.653 6.494 5.033 10.147 3.086 26.286-14.027 56.036-21.441 86.036-21.441 100.916 0 183.017 82.101 183.017 183.017 0 50.394-20.985 98.809-57.653 133.316h-28.35c8.559-6.214 16.495-13.209 23.691-20.934 2.938-3.154 4.466-7.433 4.192-11.739-.273-4.316-2.336-8.379-5.66-11.146l-38.296-31.879c-6.349-5.283-15.55-4.804-21.396 1.117-5.245 5.31-11.212 9.912-17.735 13.679-6.524 3.768-13.493 6.634-20.714 8.52-8.054 2.104-13.068 9.831-11.665 17.974l8.459 49.1c.115.67.285 1.321.481 1.962-.662 2.168-1.02 4.466-1.02 6.848v25.379c-5.755.54-11.566.821-17.35.821-13.677 0-27.208-1.509-40.403-4.482 3.919-2.815 6.486-7.401 6.486-12.585v-17.134c0-8.547-6.953-15.5-15.5-15.5h-67.333v-18.134h17.633c8.547 0 15.5-6.953 15.5-15.5v-83.4c0-8.547-6.953-15.5-15.5-15.5h-83.892c-.001-.261-.008-.523-.008-.783 0-57.583 26.296-110.661 72.145-145.624 3.294-2.512 3.928-7.218 1.416-10.512s-7.217-3.927-10.512-1.416c-23.726 18.093-43.37 41.687-56.809 68.236-14.095 27.843-21.241 57.893-21.241 89.315 0 .26.007.522.008.783h-50.774c-8.547 0-15.5 6.953-15.5 15.5v83.4c0 8.547 6.953 15.5 15.5 15.5h17.633v18.133h-67.333c-8.547 0-15.5 6.953-15.5 15.5v17.134c0 8.547 6.953 15.5 15.5 15.5h1.067v117.034c0 8.547 6.953 15.5 15.5 15.5h13.266c4.142 0 7.5-3.357 7.5-7.5s-3.358-7.5-7.5-7.5h-13.266c-.276 0-.5-.225-.5-.5v-17.633h51.267v18.133h-7.367c-4.142 0-7.5 3.357-7.5 7.5s3.358 7.5 7.5 7.5h172.533c8.547 0 15.5-6.953 15.5-15.5v-106.971c16.406 4.314 33.342 6.504 50.483 6.504 5.782 0 11.587-.275 17.35-.774v93.241c0 12.958 10.542 23.5 23.5 23.5h133.667c12.958 0 23.5-10.542 23.5-23.5v-133.667c0-12.958-10.542-23.5-23.5-23.5zm-306.267 0h-18.133v-18.133h18.133zm-51.266 0v-18.133h18.133v18.133zm-66.267-33.633v-83.4c0-.275.224-.5.5-.5h149.667c.276 0 .5.225.5.5v83.4c0 .275-.224.5-.5.5h-149.667c-.276 0-.5-.224-.5-.5zm33.133 15.5h18.133v18.133h-18.133zm-82.833 50.767v-17.134c0-.275.224-.5.5-.5h249.066c.275 0 .5.225.5.5v17.134c0 .275-.225.5-.5.5h-249.066c-.276 0-.5-.225-.5-.5zm16.567 99.9v-84.4h216.932c0 .029.001.057.001.086v84.315h-51.267v-42.2c0-4.143-3.358-7.5-7.5-7.5h-99.4c-4.142 0-7.5 3.357-7.5 7.5v42.2h-51.266zm66.266-34.7h34.7v67.833h-34.7zm49.7 67.833v-67.833h34.7v67.833zm100.467 0h-50.767v-18.133h51.267v17.633c0 .275-.224.5-.5.5zm90.869-203.536c8.52-2.226 16.736-5.604 24.423-10.043 7.686-4.436 14.72-9.863 20.908-16.129.286-.291.765-.431 1.129-.127l38.294 31.877c.176.147.273.337.287.566.014.22-.053.41-.199.566-10.111 10.855-21.815 20.156-34.786 27.645-2.122 1.225-4.295 2.392-6.473 3.514h-27.619c-3.533 0-6.885.789-9.894 2.192l-6.745-39.148c-.079-.463.28-.811.675-.913zm158.131 195.036c0 4.686-3.814 8.5-8.5 8.5h-133.667c-4.686 0-8.5-3.814-8.5-8.5v-133.667c0-1.025.5-3.312 1.246-4.407 1.494-2.449 4.182-4.093 7.254-4.093h133.667c4.686 0 8.5 3.814 8.5 8.5z"/><path d="m473.529 369.518c-3.393-2.995-7.911-4.39-12.404-3.829l-49.7 6.212c-7.882.986-13.825 7.72-13.825 15.662v44.95c-2.8-1.143-5.86-1.779-9.066-1.779-13.271 0-24.066 10.796-24.066 24.066s10.796 24.067 24.066 24.067 24.066-10.797 24.066-24.067v-38.936l51.268-6.409v23.058c-2.8-1.144-5.86-1.779-9.067-1.779-13.271 0-24.066 10.796-24.066 24.066s10.796 24.067 24.066 24.067 24.067-10.797 24.067-24.067v-73.45c-.001-4.525-1.946-8.837-5.339-11.832zm-84.996 94.349c-4.999 0-9.066-4.067-9.066-9.067 0-4.999 4.067-9.066 9.066-9.066s9.066 4.067 9.066 9.066c.001 5-4.067 9.067-9.066 9.067zm24.067-63.121v-13.183c0-.395.295-.728.686-.777l49.701-6.212c.23-.029.44.034.616.189s.265.353.265.587v12.987zm42.2 63.121c-4.999 0-9.066-4.067-9.066-9.067 0-4.999 4.067-9.066 9.066-9.066 5 0 9.067 4.067 9.067 9.066 0 5-4.067 9.067-9.067 9.067z"/></g></svg>