<svg id="Capa_1" enable-background="new 0 0 512 512" height="512" viewBox="0 0 512 512" width="512" xmlns="http://www.w3.org/2000/svg"><g><path d="m289.133 99.4c-13.271 0-24.066 10.796-24.066 24.067s10.796 24.066 24.066 24.066 24.067-10.796 24.067-24.066v-73.45c0-4.525-1.945-8.838-5.338-11.833s-7.909-4.388-12.403-3.829l-49.699 6.212c-7.883.985-13.826 7.718-13.826 15.661v44.95c-2.8-1.143-5.86-1.779-9.066-1.779-13.271 0-24.067 10.796-24.067 24.067s10.797 24.066 24.067 24.066 24.066-10.796 24.066-24.066v-38.937l51.267-6.408v23.058c-2.801-1.144-5.861-1.779-9.068-1.779zm0 33.133c-4.999 0-9.066-4.067-9.066-9.066s4.067-9.067 9.066-9.067c5 0 9.067 4.067 9.067 9.067 0 4.999-4.067 9.066-9.067 9.066zm-66.266 0c-5 0-9.067-4.067-9.067-9.066s4.067-9.067 9.067-9.067c4.999 0 9.066 4.067 9.066 9.067.001 4.999-4.067 9.066-9.066 9.066zm24.067-63.121v-13.183c0-.394.295-.728.687-.777l49.7-6.212c.229-.028.439.035.615.19s.265.353.265.587v12.988z"/><path d="m471.367 82.834h-7.741c.022-1.705-.226-3.432-.775-5.122-1.87-5.756-6.752-9.873-12.742-10.743l-15.597-2.267-6.976-14.134c-2.679-5.427-8.103-8.798-14.154-8.798s-11.475 3.371-14.153 8.798l-6.976 14.134-15.597 2.267c-5.989.87-10.871 4.986-12.741 10.742-.549 1.69-.797 3.418-.775 5.123h-16.808v-59.334c0-12.958-10.542-23.5-23.5-23.5h-133.665c-12.958 0-23.5 10.542-23.5 23.5v16.727c0 4.142 3.357 7.5 7.5 7.5s7.5-3.358 7.5-7.5v-16.727c0-4.687 3.813-8.5 8.5-8.5h133.666c4.686 0 8.5 3.813 8.5 8.5v133.667c0 4.687-3.814 8.5-8.5 8.5h-133.666c-4.687 0-8.5-3.813-8.5-8.5v-86.94c0-4.142-3.357-7.5-7.5-7.5s-7.5 3.358-7.5 7.5v12.606h-16.808c.022-1.705-.226-3.433-.775-5.123-1.87-5.756-6.752-9.872-12.741-10.742l-15.597-2.267-6.976-14.134c-2.679-5.427-8.103-8.798-14.153-8.798-6.052 0-11.476 3.371-14.154 8.798l-6.976 14.134-15.597 2.267c-5.99.87-10.872 4.986-12.742 10.743-.549 1.69-.797 3.417-.775 5.122h-7.741c-22.404.001-40.632 18.229-40.632 40.634v347.9c0 22.405 18.228 40.633 40.633 40.633h34.699c4.143 0 7.5-3.358 7.5-7.5s-3.357-7.5-7.5-7.5h-34.699c-14.134 0-25.633-11.499-25.633-25.633v-25.633h482v25.633c0 14.134-11.499 25.633-25.633 25.633h-366.034c-4.143 0-7.5 3.358-7.5 7.5s3.357 7.5 7.5 7.5h366.034c22.405 0 40.633-18.228 40.633-40.633v-347.9c0-22.405-18.228-40.633-40.633-40.633zm-456.367 130.966h482v100.967h-482zm363.182-131.454c.15-.463.476-.51.632-.533l19.499-2.834c2.443-.355 4.555-1.889 5.647-4.102l8.721-17.669c.069-.142.216-.438.702-.438.487 0 .634.295.703.438l8.721 17.67c1.093 2.213 3.204 3.747 5.647 4.102l19.499 2.834c.156.023.482.07.633.534.15.462-.085.692-.199.803l-14.11 13.754c-1.768 1.723-2.574 4.206-2.156 6.639l3.331 19.421c.026.156.082.479-.312.766-.393.284-.685.134-.825.06l-17.442-9.169c-1.093-.574-2.291-.861-3.49-.861s-2.397.287-3.49.862l-17.441 9.169c-.14.075-.431.226-.825-.06s-.338-.61-.312-.766l3.331-19.421c.418-2.433-.389-4.915-2.156-6.639l-14.11-13.754c-.113-.113-.349-.343-.198-.806zm-314.768 0c.15-.463.476-.511.633-.534l19.499-2.834c2.443-.355 4.555-1.889 5.647-4.102l8.721-17.669c.069-.142.216-.438.703-.438.486 0 .633.295.702.438l8.721 17.67c1.093 2.213 3.204 3.747 5.647 4.102l19.499 2.834c.156.023.482.07.632.533s-.085.693-.198.803l-14.11 13.754c-1.768 1.723-2.574 4.206-2.156 6.639l3.331 19.421c.026.156.082.479-.312.766-.394.284-.686.133-.825.06l-17.44-9.169c-1.093-.575-2.291-.862-3.49-.862-1.198 0-2.397.287-3.49.861l-17.441 9.169c-.14.075-.432.226-.825-.06-.394-.286-.338-.61-.312-.766l3.331-19.421c.418-2.433-.389-4.915-2.156-6.639l-14.113-13.754c-.113-.11-.348-.339-.198-.802zm-22.781 15.488h16.555l7.242 7.059-2.664 15.534c-1.023 5.965 1.382 11.88 6.277 15.438 4.897 3.557 11.266 4.016 16.623 1.202l13.951-7.335 13.95 7.335c2.33 1.225 4.852 1.83 7.36 1.83 3.259 0 6.496-1.021 9.263-3.031 4.896-3.558 7.301-9.473 6.277-15.438l-2.664-15.534 7.242-7.059h25.622v59.333c0 12.958 10.542 23.5 23.5 23.5h133.666c12.958 0 23.5-10.542 23.5-23.5v-59.334h25.622l7.241 7.059-2.664 15.534c-1.023 5.965 1.382 11.88 6.277 15.438 4.898 3.557 11.267 4.017 16.623 1.201l13.95-7.334 13.951 7.335c2.33 1.225 4.851 1.83 7.36 1.83 3.259 0 6.496-1.021 9.263-3.031 4.896-3.558 7.301-9.473 6.277-15.438l-2.664-15.534 7.241-7.059h16.556c14.134 0 25.633 11.499 25.633 25.633v75.332h-481.999v-75.333c0-14.135 11.499-25.633 25.633-25.633zm-25.633 332.899v-100.966h482v100.967h-482z"/><path d="m198.3 231.933h-83.4c-8.547 0-15.5 6.953-15.5 15.5v33.7c0 8.547 6.953 15.5 15.5 15.5h83.4c8.547 0 15.5-6.953 15.5-15.5v-33.7c0-8.547-6.953-15.5-15.5-15.5zm.5 49.2c0 .276-.225.5-.5.5h-83.4c-.275 0-.5-.224-.5-.5v-33.7c0-.276.225-.5.5-.5h83.4c.275 0 .5.224.5.5z"/><path d="m239.434 246.933h82.833c4.143 0 7.5-3.358 7.5-7.5s-3.357-7.5-7.5-7.5h-82.833c-4.143 0-7.5 3.358-7.5 7.5s3.357 7.5 7.5 7.5z"/><path d="m289.133 281.633h-49.699c-4.143 0-7.5 3.358-7.5 7.5s3.357 7.5 7.5 7.5h49.699c4.143 0 7.5-3.358 7.5-7.5s-3.358-7.5-7.5-7.5z"/><path d="m421.667 281.633h-99.4c-4.143 0-7.5 3.358-7.5 7.5s3.357 7.5 7.5 7.5h99.4c4.143 0 7.5-3.358 7.5-7.5s-3.357-7.5-7.5-7.5z"/><path d="m57.2 240.217c-13.271 0-24.067 10.796-24.067 24.066s10.797 24.067 24.067 24.067 24.066-10.796 24.066-24.067-10.795-24.066-24.066-24.066zm0 33.133c-5 0-9.067-4.067-9.067-9.067 0-4.999 4.067-9.066 9.067-9.066 4.999 0 9.066 4.067 9.066 9.066.001 5-4.067 9.067-9.066 9.067z"/><path d="m198.3 347.9h-83.4c-8.547 0-15.5 6.953-15.5 15.5v33.7c0 8.547 6.953 15.5 15.5 15.5h83.4c8.547 0 15.5-6.953 15.5-15.5v-33.7c0-8.547-6.953-15.5-15.5-15.5zm.5 49.2c0 .276-.225.5-.5.5h-83.4c-.275 0-.5-.224-.5-.5v-33.7c0-.276.225-.5.5-.5h83.4c.275 0 .5.224.5.5z"/><path d="m239.434 362.9h33.133c4.143 0 7.5-3.358 7.5-7.5s-3.357-7.5-7.5-7.5h-33.133c-4.143 0-7.5 3.358-7.5 7.5s3.357 7.5 7.5 7.5z"/><path d="m338.833 397.6h-99.399c-4.143 0-7.5 3.358-7.5 7.5s3.357 7.5 7.5 7.5h99.399c4.143 0 7.5-3.358 7.5-7.5s-3.357-7.5-7.5-7.5z"/><path d="m421.667 397.6h-49.7c-4.143 0-7.5 3.358-7.5 7.5s3.357 7.5 7.5 7.5h49.7c4.143 0 7.5-3.358 7.5-7.5s-3.357-7.5-7.5-7.5z"/><path d="m57.2 356.183c-13.271 0-24.067 10.796-24.067 24.067s10.797 24.067 24.067 24.067 24.066-10.796 24.066-24.067-10.795-24.067-24.066-24.067zm0 33.134c-5 0-9.067-4.067-9.067-9.067s4.067-9.067 9.067-9.067c4.999 0 9.066 4.067 9.066 9.067s-4.067 9.067-9.066 9.067z"/><path d="m264.283 478.867c4.143 0 7.5-3.358 7.5-7.5s-3.357-7.5-7.5-7.5h-16.566c-4.143 0-7.5 3.358-7.5 7.5s3.357 7.5 7.5 7.5z"/><path d="m214.583 478.867c4.143 0 7.5-3.358 7.5-7.5s-3.357-7.5-7.5-7.5h-16.566c-4.143 0-7.5 3.358-7.5 7.5s3.357 7.5 7.5 7.5z"/><path d="m313.983 478.867c4.143 0 7.5-3.358 7.5-7.5s-3.357-7.5-7.5-7.5h-16.566c-4.143 0-7.5 3.358-7.5 7.5s3.357 7.5 7.5 7.5z"/><path d="m355.4 347.9h-49.7c-4.143 0-7.5 3.358-7.5 7.5s3.357 7.5 7.5 7.5h49.7c4.143 0 7.5-3.358 7.5-7.5s-3.357-7.5-7.5-7.5z"/></g></svg>