<svg id="Capa_1" enable-background="new 0 0 512 512" height="512" viewBox="0 0 512 512" width="512" xmlns="http://www.w3.org/2000/svg"><g><path d="m471.367 0h-382.6c-4.143 0-7.5 3.358-7.5 7.5s3.357 7.5 7.5 7.5h382.6c14.134 0 25.632 11.499 25.632 25.632v364.468c0 14.134-11.498 25.633-25.632 25.633h-100.967c-4.143 0-7.5 3.358-7.5 7.5s3.357 7.5 7.5 7.5h100.967c9.711 0 18.634-3.429 25.632-9.134v34.768c0 14.134-11.498 25.632-25.632 25.632h-9.067v-9.066c0-4.142-3.357-7.5-7.5-7.5s-7.5 3.358-7.5 7.5v9.067h-34.7v-9.066c0-4.142-3.357-7.5-7.5-7.5s-7.5 3.358-7.5 7.5v9.066h-34.7v-9.066c0-4.142-3.357-7.5-7.5-7.5s-7.5 3.358-7.5 7.5v9.066h-117.533v-17.633c0-8.547-6.953-15.5-15.5-15.5h-17.134c-8.547 0-15.5 6.953-15.5 15.5v17.633h-18.133v-17.633c0-8.547-6.953-15.5-15.5-15.5h-17.133c-8.547 0-15.5 6.953-15.5 15.5v17.633h-18.134v-17.633c0-8.547-6.953-15.5-15.5-15.5h-17.133c-8.547 0-15.5 6.953-15.5 15.5v17.633h-9.067c-14.134 0-25.632-11.499-25.632-25.632v-34.768c6.997 5.705 15.921 9.134 25.632 9.134h299.767c4.143 0 7.5-3.358 7.5-7.5s-3.357-7.5-7.5-7.5h-299.767c-14.134 0-25.632-11.499-25.632-25.633v-364.469c0-14.133 11.498-25.632 25.632-25.632h18.134c4.143 0 7.5-3.358 7.5-7.5s-3.358-7.5-7.5-7.5h-18.134c-22.404 0-40.632 18.228-40.632 40.632v430.735c0 22.405 18.228 40.633 40.632 40.633h430.734c22.404 0 40.632-18.228 40.632-40.632v-430.736c0-22.404-18.227-40.632-40.632-40.632zm-406.667 497v-17.633c0-.276.225-.5.5-.5h17.133c.275 0 .5.224.5.5v17.633zm66.267 0v-17.633c0-.276.225-.5.5-.5h17.133c.275 0 .5.224.5.5v17.633zm66.266 0v-17.633c0-.276.225-.5.5-.5h17.134c.275 0 .5.224.5.5v17.633z"/><path d="m347.9 346.833v50.267c0 8.547 6.953 15.5 15.5 15.5h99.967c8.547 0 15.5-6.953 15.5-15.5v-50.267c0-8.547-6.953-15.5-15.5-15.5h-99.967c-8.547 0-15.5 6.954-15.5 15.5zm115.967 0v50.267c0 .276-.225.5-.5.5h-99.967c-.275 0-.5-.224-.5-.5v-50.267c0-.276.225-.5.5-.5h99.967c.276 0 .5.225.5.5z"/><path d="m405.1 379.467h16.567c4.143 0 7.5-3.358 7.5-7.5s-3.357-7.5-7.5-7.5h-16.567c-4.143 0-7.5 3.358-7.5 7.5s3.357 7.5 7.5 7.5z"/><path d="m33.133 57.2c0 13.271 10.797 24.067 24.067 24.067s24.067-10.797 24.067-24.067-10.796-24.066-24.066-24.066-24.068 10.796-24.068 24.066zm33.134 0c0 5-4.067 9.067-9.066 9.067-5 0-9.067-4.067-9.067-9.067 0-4.999 4.067-9.066 9.067-9.066 4.998-.001 9.066 4.067 9.066 9.066z"/><path d="m40.633 397.6c-4.143 0-7.5 3.358-7.5 7.5s3.357 7.5 7.5 7.5h16.567c4.143 0 7.5-3.358 7.5-7.5s-3.357-7.5-7.5-7.5z"/><path d="m90.333 397.6c-4.143 0-7.5 3.358-7.5 7.5s3.357 7.5 7.5 7.5h16.567c4.143 0 7.5-3.358 7.5-7.5s-3.357-7.5-7.5-7.5z"/><path d="m206.3 165.667c-31.54 0-57.2 25.66-57.2 57.2s25.66 57.2 57.2 57.2 57.2-25.66 57.2-57.2-25.66-57.2-57.2-57.2zm0 99.4c-23.27 0-42.2-18.931-42.2-42.2s18.931-42.2 42.2-42.2 42.2 18.931 42.2 42.2-18.931 42.2-42.2 42.2z"/><path d="m206.3 198.8c-13.271 0-24.066 10.796-24.066 24.067 0 13.27 10.796 24.066 24.066 24.066s24.067-10.796 24.067-24.066c0-13.271-10.797-24.067-24.067-24.067zm0 33.133c-4.999 0-9.066-4.067-9.066-9.066s4.067-9.067 9.066-9.067c5 0 9.067 4.067 9.067 9.067 0 4.999-4.067 9.066-9.067 9.066z"/><path d="m213.8 90.334c0-4.142-3.357-7.5-7.5-7.5-77.215 0-140.033 62.819-140.033 140.033 0 4.142 3.357 7.5 7.5 7.5s7.5-3.358 7.5-7.5c0-68.943 56.09-125.033 125.033-125.033 4.142 0 7.5-3.358 7.5-7.5z"/><path d="m401.169 204.435-21.836 11.949c-3.423-92.491-79.721-166.684-173.033-166.684-95.484 0-173.167 77.683-173.167 173.167s77.682 173.166 173.167 173.166c91.88 0 167.264-71.932 172.825-162.437l29.245-16.003c7.72-4.224 12.515-12.314 12.515-21.113v-49.455c28.006-3.687 49.699-27.696 49.699-56.692 0-31.541-25.659-57.2-57.199-57.2s-57.2 25.66-57.2 57.2c0 28.997 21.694 53.006 49.7 56.692v49.455c-.001 3.315-1.808 6.363-4.716 7.955zm-194.869 176.598c-87.214 0-158.167-70.953-158.167-158.167s70.953-158.166 158.167-158.166 158.167 70.954 158.167 158.167c0 .556-.015 1.109-.021 1.664l-17.354 9.496-.499-.905c-4.204-7.62-13.822-10.399-21.443-6.197l-29.013 16.003c-3.692 2.036-6.37 5.388-7.54 9.438s-.693 8.314 1.343 12.005l.394.714-4.801 2.627c-3.634 1.988-4.967 6.546-2.978 10.18 1.363 2.491 3.934 3.901 6.586 3.901 1.217 0 2.451-.297 3.594-.922l4.845-2.651.362.657c2.037 3.691 5.389 6.369 9.44 7.539 1.453.42 2.933.628 4.404.628 2.631 0 5.233-.665 7.6-1.97l29.013-16.003c3.692-2.036 6.37-5.388 7.54-9.439 1.17-4.05.693-8.314-1.343-12.005l-.258-.467 8.939-4.892c-9.597 78.095-76.332 138.765-156.977 138.765zm96.774-123.907c-.104-.189-.127-.389-.067-.596s.186-.364.374-.468l29.013-16.003c.12-.066.249-.097.377-.097.276 0 .545.146.688.404l4.093 7.422c.001.002.002.005.003.007s.002.004.003.006l3.901 7.073c.104.188.127.389.067.596s-.186.364-.374.468c0 0 0 0-.001.001l-29.013 16.003c-.189.104-.392.124-.595.066-.207-.06-.365-.186-.469-.374zm110.31-157.726c-5 0-9.067-4.067-9.067-9.066 0-5 4.067-9.067 9.067-9.067 4.999 0 9.066 4.067 9.066 9.067 0 4.998-4.067 9.066-9.066 9.066zm-42.2-9.066c0-23.269 18.931-42.2 42.2-42.2s42.199 18.931 42.199 42.2c0 20.708-14.998 37.968-34.699 41.519v-18.655c9.608-3.16 16.566-12.212 16.566-22.863 0-13.271-10.796-24.067-24.066-24.067s-24.067 10.796-24.067 24.067c0 10.652 6.959 19.704 16.567 22.863v18.655c-19.702-3.551-34.7-20.811-34.7-41.519z"/><path d="m430.233 313.2c8.547 0 15.5-6.953 15.5-15.5v-17.133c0-8.547-6.953-15.5-15.5-15.5h-17.133c-8.547 0-15.5 6.953-15.5 15.5v17.133c0 8.547 6.953 15.5 15.5 15.5zm-17.633-15.5v-17.133c0-.276.225-.5.5-.5h17.134c.275 0 .5.224.5.5v17.133c0 .276-.225.5-.5.5h-17.134c-.276 0-.5-.224-.5-.5z"/></g></svg>