<svg id="Capa_1" enable-background="new 0 0 512.004 512.004" height="512" viewBox="0 0 512.004 512.004" width="512" xmlns="http://www.w3.org/2000/svg"><g><path d="m445.483 463.87h-4.602l-2.639-26.39c-.001-.008-.002-.017-.003-.025l-3.475-34.75c-1.235-12.355-11.53-21.672-23.947-21.672h-15.494l-4.459-44.593c-1.236-12.354-11.531-21.671-23.947-21.671h-42.242c56.726-26.094 96.211-83.461 96.211-149.884 0-90.917-73.966-164.883-164.883-164.883-37.577 0-72.971 12.313-102.355 35.608-3.246 2.573-3.791 7.291-1.218 10.536 2.574 3.246 7.291 3.792 10.537 1.218 26.706-21.171 58.877-32.362 93.037-32.362 82.645 0 149.883 67.237 149.883 149.883s-67.237 149.883-149.883 149.883-149.883-67.237-149.883-149.883c0-35.861 12.863-70.561 36.22-97.706 2.702-3.14 2.347-7.875-.793-10.577-3.141-2.702-7.876-2.347-10.577.793-25.697 29.866-39.85 68.04-39.85 107.489 0 66.423 39.485 123.79 96.211 149.884h-42.242c-12.417 0-22.712 9.317-23.948 21.672l-4.459 44.592h-15.495c-12.416 0-22.711 9.317-23.947 21.672l-6.117 61.165h-4.601c-9.274 0-16.819 7.545-16.819 16.819v14.494c0 9.274 7.545 16.819 16.819 16.819h41.948c4.142 0 7.5-3.358 7.5-7.5s-3.358-7.5-7.5-7.5h-41.95c-1.003 0-1.819-.816-1.819-1.819v-14.494c0-1.003.816-1.819 1.819-1.819h115.714v18.132h-43.766c-4.142 0-7.5 3.358-7.5 7.5s3.358 7.5 7.5 7.5h307.014c9.274 0 16.819-7.545 16.819-16.819v-14.494c0-9.273-7.545-16.818-16.819-16.818zm-248.248-34.202c0-.276.224-.5.5-.5h116.533c.276 0 .5.224.5.5v67.333h-117.533zm132.534 16.066h94.224l1.814 18.136h-96.037v-18.136zm-193.702-107.8c.465-4.655 4.344-8.164 9.022-8.164h221.828c4.678 0 8.556 3.51 9.021 8.164l4.31 43.1h-248.492zm-34.881 58.099h309.631c4.678 0 8.556 3.51 9.021 8.165l2.654 26.537h-92.724v-1.066c0-8.547-6.953-15.5-15.5-15.5h-116.533c-8.547 0-15.5 6.953-15.5 15.5v1.066h-92.724l2.654-26.536c.465-4.655 4.343-8.166 9.021-8.166zm-14.989 67.837 1.814-18.136h94.225v18.136zm361.105 31.313c0 1.003-.816 1.819-1.819 1.819h-115.714v-18.132h115.714c1.003 0 1.819.816 1.819 1.819z"/><path d="m272.568 447.301h-33.133c-4.142 0-7.5 3.358-7.5 7.5s3.358 7.5 7.5 7.5h33.133c4.142 0 7.5-3.358 7.5-7.5s-3.357-7.5-7.5-7.5z"/><path d="m256.002 188.952c13.27 0 24.066-10.796 24.066-24.067 0-13.27-10.796-24.066-24.066-24.066-13.271 0-24.066 10.796-24.066 24.066s10.796 24.067 24.066 24.067zm0-33.134c4.999 0 9.066 4.067 9.066 9.066s-4.067 9.067-9.066 9.067-9.066-4.067-9.066-9.067c0-4.998 4.067-9.066 9.066-9.066z"/><path d="m256.002 230.563c36.214 0 65.677-29.463 65.677-65.678 0-36.214-29.463-65.677-65.677-65.677s-65.677 29.463-65.677 65.677c0 36.215 29.463 65.678 65.677 65.678zm0-116.355c27.943 0 50.677 22.734 50.677 50.677 0 27.944-22.734 50.678-50.677 50.678s-50.677-22.734-50.677-50.678 22.734-50.677 50.677-50.677z"/><path d="m132.536 156.318v17.133c0 8.547 6.953 15.5 15.5 15.5h17.133c8.547 0 15.5-6.953 15.5-15.5v-17.133c0-8.547-6.953-15.5-15.5-15.5h-17.133c-8.547 0-15.5 6.954-15.5 15.5zm15 0c0-.276.224-.5.5-.5h17.133c.276 0 .5.224.5.5v17.133c0 .276-.224.5-.5.5h-17.133c-.276 0-.5-.224-.5-.5z"/><path d="m363.968 188.952c8.547 0 15.5-6.953 15.5-15.5v-17.133c0-8.547-6.953-15.5-15.5-15.5h-17.133c-8.547 0-15.5 6.953-15.5 15.5v17.133c0 8.547 6.953 15.5 15.5 15.5zm-17.633-15.5v-17.133c0-.276.224-.5.5-.5h17.133c.276 0 .5.224.5.5v17.133c0 .276-.224.5-.5.5h-17.133c-.276 0-.5-.224-.5-.5z"/><path d="m191.489 271.36c-1.933 3.664-.529 8.2 3.135 10.132 18.783 9.906 40.007 15.142 61.377 15.142 21.371 0 42.595-5.236 61.378-15.143 3.664-1.932 5.068-6.469 3.135-10.132-1.932-3.664-6.469-5.067-10.132-3.135-16.635 8.773-35.44 13.41-54.381 13.41s-37.746-4.637-54.38-13.41c-3.663-1.932-8.2-.528-10.132 3.136z"/><path d="m320.515 58.41c1.933-3.664.529-8.2-3.135-10.132-18.783-9.906-40.007-15.142-61.377-15.142-21.371 0-42.595 5.236-61.378 15.143-3.664 1.932-5.068 6.469-3.135 10.132 1.344 2.548 3.947 4.003 6.64 4.003 1.18 0 2.376-.279 3.492-.868 16.635-8.773 35.44-13.41 54.381-13.41s37.746 4.637 54.38 13.41c3.663 1.932 8.201.528 10.132-3.136z"/><path d="m256.002 263.502c15.996 0 31.883-3.919 45.944-11.335 3.664-1.932 5.068-6.469 3.135-10.132-1.932-3.663-6.469-5.068-10.132-3.135-11.913 6.282-25.38 9.603-38.947 9.603-13.566 0-27.034-3.321-38.946-9.603-3.663-1.933-8.2-.528-10.132 3.135-1.933 3.664-.529 8.2 3.135 10.132 14.061 7.415 29.948 11.335 45.943 11.335z"/><path d="m256.002 66.269c-15.997 0-31.884 3.92-45.945 11.336-3.664 1.932-5.067 6.469-3.135 10.133 1.344 2.548 3.947 4.003 6.64 4.003 1.18 0 2.376-.279 3.493-.868 11.912-6.283 25.38-9.604 38.947-9.604 13.566 0 27.034 3.321 38.946 9.602 3.664 1.935 8.201.529 10.132-3.135 1.933-3.664.529-8.2-3.135-10.132-14.061-7.416-29.948-11.335-45.943-11.335z"/><path d="m511.22 243.379c-1.87-5.755-6.753-9.872-12.741-10.742l-15.598-2.267-6.975-14.134c-2.679-5.427-8.102-8.798-14.154-8.798-6.052.001-11.475 3.372-14.153 8.798l-6.976 14.134-15.598 2.267c-5.989.87-10.871 4.986-12.741 10.742s-.34 11.955 3.994 16.18l11.287 11.002-2.664 15.534c-1.023 5.965 1.383 11.88 6.279 15.437 2.767 2.01 6.003 3.031 9.262 3.031 2.508 0 5.03-.605 7.36-1.83l13.951-7.335 13.951 7.335c5.357 2.815 11.726 2.357 16.622-1.201 4.896-3.557 7.302-9.472 6.279-15.438l-2.665-15.535 11.287-11.001c4.333-4.224 5.863-10.423 3.993-16.179zm-14.465 5.438-14.11 13.754c-1.768 1.723-2.574 4.206-2.157 6.639l3.331 19.42c.027.156.082.48-.312.766-.395.286-.686.133-.825.06l-17.441-9.169c-1.093-.574-2.292-.861-3.49-.861-1.199 0-2.398.287-3.49.861l-17.44 9.169c-.14.074-.43.228-.825-.06-.394-.286-.338-.61-.312-.766l3.331-19.421c.417-2.433-.389-4.915-2.157-6.638l-14.11-13.754c-.113-.11-.349-.34-.199-.803s.476-.51.633-.533l19.5-2.833c2.443-.355 4.554-1.889 5.647-4.103l8.721-17.67c.07-.142.215-.437.702-.437s.633.295.703.437l8.72 17.67c1.092 2.213 3.204 3.748 5.647 4.103l19.5 2.833c.157.023.482.07.633.533.15.464-.086.693-.2.803z"/><path d="m64.203 302.733c2.33 1.225 4.851 1.83 7.359 1.83 3.259 0 6.496-1.021 9.262-3.031 4.896-3.557 7.302-9.472 6.279-15.437l-2.664-15.535 11.287-11.002c4.333-4.225 5.864-10.424 3.994-16.18-1.87-5.755-6.753-9.872-12.741-10.742l-15.598-2.267-6.976-14.134v.001c-2.678-5.427-8.101-8.798-14.153-8.799-6.052 0-11.476 3.372-14.154 8.798l-6.975 14.134-15.598 2.267c-5.989.87-10.871 4.986-12.741 10.742-1.87 5.755-.34 11.955 3.994 16.18l11.287 11.001-2.665 15.536c-1.023 5.965 1.383 11.88 6.279 15.437s11.265 4.018 16.622 1.201l13.951-7.335zm-34.882-13.277c-.139.074-.431.228-.825-.06-.395-.286-.339-.61-.312-.766l3.331-19.421c.417-2.433-.389-4.915-2.157-6.639l-14.11-13.754c-.113-.11-.349-.34-.199-.803s.476-.51.632-.533l19.5-2.833c2.443-.355 4.555-1.889 5.647-4.103l8.72-17.67c.07-.142.215-.437.703-.437.487 0 .632.295.702.437l8.721 17.67c1.093 2.213 3.204 3.748 5.647 4.103l19.5 2.833c.157.023.482.07.633.533.15.463-.085.693-.199.803l-14.11 13.754c-1.768 1.723-2.574 4.206-2.157 6.638l3.331 19.421c.027.156.082.479-.312.766-.394.286-.685.133-.825.06l-17.441-9.169c-1.093-.574-2.292-.861-3.49-.861-1.199 0-2.398.287-3.49.861z"/></g></svg>