<svg id="Capa_1" enable-background="new 0 0 512 512" height="512" viewBox="0 0 512 512" width="512" xmlns="http://www.w3.org/2000/svg"><g><path d="m347.117 165.667h-.784v-133.317c0-17.838-14.512-32.35-32.35-32.35s-32.351 14.512-32.351 32.35v105.25c-5.018-3.202-10.968-5.067-17.35-5.067-9.977 0-18.911 4.542-24.85 11.665-5.939-7.123-14.873-11.665-24.85-11.665-6.381 0-12.332 1.865-17.35 5.067v-38.983c0-17.838-14.513-32.351-32.351-32.351s-32.35 14.513-32.35 32.351v60.378c0 4.143 3.357 7.5 7.5 7.5s7.5-3.357 7.5-7.5v-60.378c0-9.567 7.783-17.351 17.35-17.351s17.351 7.783 17.351 17.351v115.966c0 17.838 14.512 32.351 32.35 32.351 9.977 0 18.911-4.542 24.85-11.665 5.939 7.122 14.873 11.665 24.85 11.665 12.021 0 22.861-6.684 28.428-16.913 1.537.225 3.107.346 4.706.346h17.35v18.622c-28.01 3.684-49.7 27.712-49.7 56.711 0 4.143 3.357 7.5 7.5 7.5s7.5-3.357 7.5-7.5c0-23.27 18.931-42.2 42.2-42.2 4.143 0 7.5-3.357 7.5-7.5v-25.633h9.066c4.143 0 7.5-3.357 7.5-7.5s-3.357-7.5-7.5-7.5h-41.416c-9.567 0-17.351-7.783-17.351-17.351 0-9.566 7.783-17.35 17.351-17.35h49.7c9.566 0 17.35 7.783 17.35 17.35v91.116c0 32.404-26.362 58.768-58.767 58.768h-16.567c-4.143 0-7.5 3.357-7.5 7.5s3.357 7.5 7.5 7.5h16.568c3.071 0 6.092-.211 9.066-.577v35.277h-117.533v-35.276c2.974.366 5.995.577 9.066.577h16.567c4.143 0 7.5-3.357 7.5-7.5s-3.357-7.5-7.5-7.5h-16.566c-32.404 0-58.767-26.363-58.767-58.768v-99.461c0-4.143-3.357-7.5-7.5-7.5s-7.5 3.357-7.5 7.5v99.461c0 32.249 20.81 59.713 49.7 69.715v39.955c-9.608 3.16-16.566 12.213-16.566 22.865 0 6.415 2.528 12.248 6.634 16.566-4.106 4.319-6.634 10.151-6.634 16.566 0 10.652 6.958 19.704 16.566 22.865v18.552c0 8.703 7.08 15.783 15.783 15.783h115.967c8.703 0 15.783-7.08 15.783-15.783v-18.552c9.608-3.16 16.566-12.213 16.566-22.865 0-6.415-2.528-12.248-6.634-16.566 4.106-4.319 6.634-10.151 6.634-16.566 0-10.652-6.958-19.704-16.566-22.865v-39.955c28.89-10.002 49.7-37.466 49.7-69.715v-91.116c.001-17.838-14.511-32.35-32.349-32.35zm-132.534 66.267c-9.566 0-17.35-7.783-17.35-17.351v-49.7c0-9.566 7.783-17.35 17.35-17.35s17.351 7.783 17.351 17.35v49.7c0 9.567-7.784 17.351-17.351 17.351zm64.056-7.6c-3.167 4.647-8.501 7.6-14.356 7.6-9.566 0-17.35-7.783-17.35-17.351v-49.7c0-9.566 7.783-17.35 17.35-17.35s17.35 7.783 17.35 17.35v4.911c-9.875 5.545-16.566 16.114-16.566 28.223-.001 10.839 5.364 20.444 13.572 26.317zm17.994-58.647v-.804-132.533c0-9.566 7.783-17.35 17.351-17.35 9.566 0 17.35 7.783 17.35 17.35v133.317h-33.916c-.264 0-.524.014-.785.02zm25.634 298.18h-76.901c-4.143 0-7.5 3.357-7.5 7.5s3.357 7.5 7.5 7.5h69.401v17.35c0 .432-.352.783-.783.783h-115.967c-.432 0-.783-.352-.783-.783v-17.35h18.132c4.143 0 7.5-3.357 7.5-7.5s-3.357-7.5-7.5-7.5h-25.632c-4.999 0-9.066-4.067-9.066-9.067 0-4.999 4.067-9.066 9.066-9.066h132.533c4.999 0 9.066 4.067 9.066 9.066 0 5-4.067 9.067-9.066 9.067zm0-33.134h-132.534c-4.999 0-9.066-4.067-9.066-9.066 0-5 4.067-9.067 9.066-9.067h132.533c4.999 0 9.066 4.067 9.066 9.067.001 4.999-4.066 9.066-9.065 9.066z"/><path d="m90.333 115.967h-9.066v-9.067c0-4.143-3.357-7.5-7.5-7.5s-7.5 3.357-7.5 7.5v9.066h-9.067c-4.143 0-7.5 3.357-7.5 7.5s3.357 7.5 7.5 7.5h9.066v9.066c0 4.143 3.357 7.5 7.5 7.5s7.5-3.357 7.5-7.5v-9.066h9.066c4.143 0 7.5-3.357 7.5-7.5.001-4.142-3.356-7.499-7.499-7.499z"/><path d="m454.8 115.967h-9.066v-9.067c0-4.143-3.357-7.5-7.5-7.5s-7.5 3.357-7.5 7.5v9.066h-9.066c-4.143 0-7.5 3.357-7.5 7.5s3.357 7.5 7.5 7.5h9.066v9.066c0 4.143 3.357 7.5 7.5 7.5s7.5-3.357 7.5-7.5v-9.066h9.066c4.143 0 7.5-3.357 7.5-7.5 0-4.142-3.358-7.499-7.5-7.499z"/><path d="m90.333 381.033h-9.066v-9.066c0-4.143-3.357-7.5-7.5-7.5s-7.5 3.357-7.5 7.5v9.066h-9.067c-4.143 0-7.5 3.357-7.5 7.5s3.357 7.5 7.5 7.5h9.066v9.066c0 4.143 3.357 7.5 7.5 7.5s7.5-3.357 7.5-7.5v-9.066h9.066c4.143 0 7.5-3.357 7.5-7.5s-3.356-7.5-7.499-7.5z"/><path d="m454.8 381.033h-9.066v-9.066c0-4.143-3.357-7.5-7.5-7.5s-7.5 3.357-7.5 7.5v9.066h-9.066c-4.143 0-7.5 3.357-7.5 7.5s3.357 7.5 7.5 7.5h9.066v9.066c0 4.143 3.357 7.5 7.5 7.5s7.5-3.357 7.5-7.5v-9.066h9.066c4.143 0 7.5-3.357 7.5-7.5s-3.358-7.5-7.5-7.5z"/><path d="m24.066 231.934c-13.27 0-24.066 10.796-24.066 24.066 0 13.271 10.796 24.066 24.066 24.066s24.067-10.795 24.067-24.066c0-13.27-10.796-24.066-24.067-24.066zm0 33.132c-4.999 0-9.066-4.067-9.066-9.066s4.067-9.066 9.066-9.066 9.066 4.067 9.066 9.066-4.067 9.066-9.066 9.066z"/><path d="m487.934 231.934c-13.271 0-24.066 10.796-24.066 24.066 0 13.271 10.796 24.066 24.066 24.066s24.066-10.795 24.066-24.066c0-13.27-10.796-24.066-24.066-24.066zm0 33.132c-4.999 0-9.066-4.067-9.066-9.066s4.067-9.066 9.066-9.066 9.066 4.067 9.066 9.066-4.067 9.066-9.066 9.066z"/></g></svg>